<?xml version="1.0" standalone="no"?>
<!DOCTYPE svg PUBLIC "-//W3C//DTD SVG 20010904//EN"
 "http://www.w3.org/TR/2001/REC-SVG-20010904/DTD/svg10.dtd">
<svg version="1.0" xmlns="http://www.w3.org/2000/svg"
 width="1080.000000pt" height="1080.000000pt" viewBox="0 0 1080.000000 1080.000000"
 preserveAspectRatio="xMidYMid meet">

<g transform="translate(0.000000,1080.000000) scale(0.100000,-0.100000)"
fill="#000000" stroke="none">
<path d="M6355 10460 c-103 -17 -208 -83 -314 -196 -58 -63 -151 -192 -151
-210 0 -4 -6 -15 -14 -23 -7 -9 -35 -56 -61 -106 -25 -49 -64 -121 -86 -160
-22 -38 -45 -80 -51 -93 -6 -12 -16 -21 -21 -19 -15 5 -43 89 -51 148 -4 30
-13 74 -21 99 -53 164 -69 207 -102 262 -38 65 -118 158 -136 158 -6 0 -18 6
-26 14 -27 22 -116 46 -175 46 -61 0 -113 -24 -157 -74 -70 -78 -89 -312 -47
-564 26 -156 26 -155 -67 -145 -61 6 -92 23 -253 136 -29 21 -63 42 -75 48
-12 5 -41 20 -65 33 -23 14 -59 30 -80 37 -20 6 -42 15 -47 20 -6 4 -31 11
-55 15 -25 3 -64 13 -88 20 -25 8 -87 15 -144 15 -85 0 -105 -3 -127 -19 -48
-35 -41 -102 16 -157 52 -51 196 -115 258 -115 25 0 68 -37 60 -51 -3 -4 -36
-10 -73 -13 -37 -4 -101 -13 -143 -22 -68 -13 -81 -13 -125 1 -274 86 -409
108 -649 109 -239 1 -385 -29 -415 -84 -20 -38 -12 -90 19 -117 60 -53 118
-65 340 -72 150 -4 205 -9 209 -18 2 -7 -2 -13 -10 -13 -7 0 -30 -9 -51 -20
-20 -11 -43 -20 -50 -20 -7 0 -75 -31 -151 -70 -122 -61 -146 -70 -195 -70
-59 -1 -106 -6 -336 -39 -145 -20 -244 -40 -305 -62 -190 -66 -213 -76 -262
-112 -52 -37 -49 -69 10 -114 42 -32 47 -33 135 -33 93 0 229 21 301 46 21 7
43 11 47 8 10 -6 -30 -64 -43 -64 -5 0 -21 -12 -36 -27 -15 -16 -52 -48 -82
-73 -30 -25 -61 -51 -68 -58 -26 -24 -78 -45 -142 -58 -98 -19 -272 -66 -350
-95 -149 -54 -269 -104 -310 -129 -8 -4 -42 -23 -75 -40 -66 -36 -120 -75
-177 -129 -32 -29 -38 -41 -38 -76 1 -96 92 -135 242 -104 44 9 225 87 278
119 97 59 120 69 120 49 0 -10 -46 -76 -66 -94 -17 -15 -82 -107 -191 -267
-53 -79 -114 -166 -135 -195 -21 -29 -38 -57 -38 -63 0 -6 -7 -13 -15 -16 -8
-3 -17 -15 -21 -27 -3 -11 -11 -25 -15 -31 -9 -10 -20 -27 -95 -146 -66 -105
-163 -296 -185 -365 -24 -77 -24 -110 2 -151 21 -35 68 -52 107 -40 32 10 136
119 171 178 18 29 50 82 73 118 62 98 141 284 163 385 53 233 76 319 91 336 8
8 14 18 14 22 0 3 28 48 62 99 47 70 129 159 323 357 143 145 273 277 289 293
19 19 32 26 39 19 10 -10 9 -14 -28 -76 -13 -22 -38 -67 -55 -100 -17 -33 -35
-67 -40 -75 -38 -62 -54 -119 -54 -198 -1 -80 0 -85 28 -109 63 -54 129 -9
233 162 54 89 144 307 178 430 7 28 18 63 24 78 6 16 11 42 11 58 0 42 26 100
60 131 16 14 75 56 132 93 57 37 114 75 128 84 14 10 40 23 58 29 48 16 42 -6
-20 -80 -206 -245 -254 -363 -182 -440 36 -37 85 -38 139 -1 67 44 179 166
257 278 40 58 133 246 144 290 23 96 77 165 129 165 9 0 26 5 38 12 30 16 111
46 172 62 28 8 64 19 80 24 60 22 141 42 193 48 47 6 52 5 52 -12 0 -13 -19
-28 -58 -47 -31 -16 -100 -54 -152 -86 -200 -123 -262 -210 -214 -303 16 -30
16 -31 82 -25 53 4 83 13 147 47 44 23 98 54 120 69 88 60 111 77 140 102 17
15 55 48 85 74 30 27 91 85 135 131 121 124 102 118 333 109 235 -8 244 -11
266 -89 9 -30 21 -58 26 -61 6 -3 10 -12 10 -20 0 -15 64 -147 111 -230 15
-27 31 -57 35 -65 4 -8 23 -36 41 -62 18 -26 33 -50 33 -53 0 -5 35 -52 124
-165 64 -80 281 -301 358 -363 85 -69 152 -58 190 31 19 45 32 76 62 145 8 17
24 55 36 82 27 63 51 115 83 185 14 31 43 96 65 145 22 50 51 116 66 147 14
31 26 63 26 70 0 8 5 19 12 26 6 6 17 26 24 44 38 103 85 203 99 210 9 5 80 8
158 6 l143 -3 103 -70 c57 -38 120 -81 140 -94 39 -26 127 -93 151 -114 8 -8
31 -25 50 -38 19 -13 52 -37 72 -54 20 -16 56 -45 80 -63 24 -18 57 -44 74
-57 18 -14 34 -25 37 -25 3 0 25 -13 49 -28 96 -64 179 -79 216 -39 51 54 32
118 -68 224 -71 76 -193 170 -260 200 -29 13 -80 62 -70 68 9 5 75 -11 145
-37 17 -5 48 -16 70 -22 22 -7 53 -18 68 -24 16 -7 33 -12 38 -12 5 0 26 -9
46 -20 21 -11 46 -20 55 -20 30 0 81 -60 143 -168 33 -57 65 -111 70 -120 102
-171 303 -385 415 -442 l42 -21 29 30 c22 24 29 40 29 72 0 65 -60 185 -148
297 -57 71 -33 83 52 27 29 -19 56 -35 59 -35 6 0 169 -110 177 -120 3 -3 21
-17 40 -30 69 -47 140 -112 140 -129 0 -9 6 -25 14 -36 7 -11 16 -42 20 -70 4
-27 12 -65 18 -84 6 -18 16 -59 23 -90 36 -153 55 -220 99 -338 20 -53 71
-149 103 -190 55 -74 143 -18 143 89 0 63 -25 215 -45 275 -16 50 -15 83 2 83
10 -1 142 -171 199 -254 140 -209 187 -292 210 -375 9 -31 20 -60 24 -66 4 -5
13 -26 18 -45 21 -69 83 -246 97 -277 8 -17 15 -38 15 -47 0 -8 6 -30 14 -48
7 -18 23 -60 35 -93 12 -33 28 -73 36 -90 8 -16 24 -55 37 -85 60 -146 136
-201 207 -151 80 57 55 299 -54 526 -64 133 -164 265 -259 341 -92 74 -135
129 -201 259 -33 63 -78 141 -91 156 -8 8 -14 21 -14 27 0 6 -7 17 -15 25 -7
8 -17 26 -21 41 -9 38 12 33 78 -19 32 -25 60 -45 63 -45 3 0 27 -15 53 -33
100 -70 278 -147 338 -147 23 0 44 10 69 31 56 49 45 107 -38 199 -35 38 -166
147 -213 177 -10 7 -35 23 -54 35 -30 20 -91 51 -217 111 -18 8 -47 18 -64 22
-16 4 -42 13 -57 21 -15 8 -38 14 -52 14 -14 0 -58 9 -99 20 -41 11 -85 20
-97 20 -14 0 -56 31 -116 86 -51 48 -126 114 -167 146 -77 61 -117 105 -108
115 3 3 25 -2 49 -10 51 -17 117 -38 218 -67 41 -12 104 -30 140 -41 91 -27
183 -26 210 3 30 32 26 73 -12 110 -31 30 -160 118 -174 118 -4 0 -25 8 -48
19 -136 62 -331 84 -553 61 l-123 -12 -127 74 c-71 41 -169 94 -220 118 -137
67 -129 74 97 81 267 9 324 21 380 81 15 16 20 35 20 74 0 64 -14 77 -127 122
-160 62 -440 70 -633 16 -63 -18 -158 -51 -180 -64 -114 -65 -133 -71 -184
-65 -28 3 -73 12 -101 20 -27 7 -70 16 -95 20 -25 3 -60 11 -77 16 -18 6 -84
16 -145 22 -105 11 -113 14 -116 35 -2 12 -2 22 0 22 22 3 162 33 228 50 47
11 108 25 136 30 28 6 64 17 80 25 16 8 37 15 47 15 29 0 113 47 136 77 17 20
21 38 19 72 -5 69 -26 76 -218 74 -85 -1 -175 -6 -200 -11 -72 -17 -150 -39
-215 -62 -63 -22 -267 -118 -275 -129 -10 -13 -118 -81 -129 -81 -17 0 -12 41
9 85 11 22 19 47 20 55 0 9 6 24 14 35 7 11 17 36 21 55 4 19 11 40 16 46 9
11 35 108 49 184 15 75 12 208 -5 243 -22 46 -78 74 -161 80 -38 3 -91 2 -119
-3z m73 -218 c2 -64 -2 -110 -9 -124 -6 -12 -17 -44 -24 -72 -14 -57 -30 -104
-53 -156 -8 -19 -18 -48 -23 -65 -10 -40 -37 -113 -54 -152 -8 -17 -15 -35
-15 -39 0 -12 -39 -113 -56 -146 -8 -14 -14 -33 -14 -42 0 -9 -9 -33 -20 -53
-11 -21 -20 -43 -20 -49 0 -11 -20 -61 -56 -141 -8 -17 -14 -35 -14 -40 -1 -4
-9 -26 -20 -48 -11 -22 -19 -46 -20 -53 0 -8 -6 -26 -14 -40 -8 -15 -24 -54
-36 -87 -12 -33 -26 -67 -30 -76 -4 -8 -20 -47 -34 -85 -15 -38 -33 -82 -41
-97 -8 -16 -15 -34 -15 -40 0 -7 -13 -37 -28 -67 -24 -47 -32 -55 -52 -52 -14
2 -31 11 -37 20 -7 9 -23 28 -36 42 -143 154 -309 377 -376 505 -93 176 -123
241 -162 352 -71 203 -94 330 -94 513 0 174 12 245 51 295 31 41 53 44 96 13
32 -24 128 -163 128 -186 0 -8 6 -26 14 -40 20 -38 56 -154 56 -183 1 -13 7
-42 15 -64 9 -22 20 -71 25 -109 6 -37 14 -73 18 -80 4 -6 12 -40 19 -76 29
-162 61 -234 111 -247 49 -12 68 8 122 132 12 28 28 62 36 77 8 14 14 32 14
40 1 7 9 31 20 53 11 22 19 45 20 52 0 7 16 39 35 72 19 32 35 62 35 66 0 7
81 147 90 155 3 3 19 25 35 50 78 117 164 215 285 323 53 48 70 57 95 55 l30
-3 3 -103z m975 -358 c20 -4 37 -12 37 -18 -1 -26 -22 -40 -81 -52 -178 -38
-302 -67 -379 -90 -26 -7 -71 -18 -100 -23 -94 -18 -192 -41 -211 -51 -25 -14
-59 -12 -59 3 0 15 32 44 63 57 12 6 29 14 37 20 27 18 167 80 182 80 7 0 23
6 34 14 11 8 46 19 77 25 32 6 64 14 70 18 26 17 258 28 330 17z m-3176 -89
c19 -8 46 -15 59 -15 13 0 41 -9 61 -20 21 -11 48 -20 60 -20 12 0 24 -4 28
-9 3 -5 22 -15 43 -22 41 -13 92 -48 92 -62 0 -25 -272 28 -428 84 -92 33
-132 57 -125 75 5 14 18 16 90 10 46 -3 100 -13 120 -21z m4078 -258 c155 -61
170 -73 123 -99 -49 -26 -753 -9 -805 20 -18 11 -5 21 52 44 141 57 217 68
425 62 122 -3 154 -7 205 -27z m-4812 2 c67 -10 125 -19 130 -19 4 0 7 -6 7
-14 0 -25 -124 -48 -290 -53 -165 -5 -270 5 -335 32 -35 15 -38 18 -22 30 15
11 94 27 192 39 69 8 204 2 318 -15z m3662 -173 c11 -7 34 -17 52 -20 17 -4
37 -14 44 -22 6 -8 17 -14 23 -14 28 0 195 -124 277 -205 87 -88 108 -125 70
-125 -27 0 -151 83 -280 187 -19 16 -50 39 -69 52 -19 13 -42 31 -52 41 -10
10 -43 37 -75 60 -43 32 -54 45 -44 51 19 12 32 11 54 -5z m-2921 -35 c6 -8
-79 -91 -93 -91 -4 0 -16 -9 -26 -20 -10 -11 -22 -20 -27 -20 -4 0 -29 -15
-55 -33 -49 -34 -147 -80 -195 -92 -22 -6 -28 -4 -28 9 0 8 6 20 13 26 35 31
120 90 137 95 11 4 20 10 20 15 0 4 12 13 28 19 15 6 45 22 67 36 22 13 51 29
65 34 14 6 32 15 40 20 19 12 47 13 54 2z m3807 -238 c125 -107 268 -291 305
-391 11 -31 11 -32 -10 -26 -34 10 -150 130 -241 249 -46 61 -91 118 -99 127
-23 27 -37 58 -31 68 11 18 32 10 76 -27z m-4673 5 c2 -9 -3 -22 -10 -29 -7
-8 -19 -25 -26 -39 -36 -70 -48 -88 -78 -123 -19 -20 -34 -41 -34 -46 0 -19
-149 -161 -169 -161 -11 0 -21 4 -21 9 0 13 46 79 113 161 34 41 65 80 70 85
4 6 19 24 32 40 14 17 42 51 63 77 37 47 54 55 60 26z m-590 -50 c-2 -6 -11
-15 -19 -18 -8 -4 -28 -14 -44 -23 -35 -18 -103 -44 -155 -58 -19 -6 -44 -14
-55 -18 -40 -17 -171 -42 -247 -48 -64 -5 -78 -3 -78 9 0 17 72 54 124 63 20
4 39 11 42 16 3 5 13 9 22 9 9 0 46 8 82 19 137 40 222 58 283 60 33 1 47 -3
45 -11z m5997 -43 c209 -37 207 -37 335 -98 92 -43 135 -82 105 -93 -9 -4 -40
1 -68 10 -29 8 -106 32 -172 52 -66 20 -136 42 -155 50 -19 7 -55 18 -80 24
-25 6 -56 20 -70 30 -21 17 -23 21 -10 30 19 13 21 13 115 -5z m-6135 -414 c0
-17 -4 -32 -9 -35 -5 -3 -12 -18 -16 -33 -21 -88 -173 -349 -200 -345 -17 2
-18 33 -2 66 116 237 127 259 150 284 10 10 17 24 17 30 0 12 40 59 53 61 4 1
7 -12 7 -28z m-596 -159 c4 -7 -95 -92 -107 -92 -3 0 -36 -21 -74 -46 -37 -26
-86 -55 -108 -65 -22 -10 -49 -24 -60 -30 -11 -7 -27 -16 -35 -20 -169 -88
-301 -122 -300 -77 1 20 91 85 187 134 48 24 92 49 97 54 6 6 17 10 26 10 8 0
35 10 60 21 63 31 92 42 200 82 109 40 107 40 114 29z m7286 -46 c83 -30 141
-54 160 -66 8 -6 26 -15 39 -20 13 -6 44 -24 68 -40 24 -17 47 -30 50 -30 9 0
185 -152 213 -184 39 -45 43 -55 25 -62 -21 -9 -156 63 -293 155 -63 42 -124
83 -137 91 -47 30 -110 75 -127 93 -10 9 -23 17 -29 17 -17 0 -79 52 -73 61 8
14 34 11 104 -15z m-332 -53 c34 -68 58 -123 72 -163 15 -44 49 -204 44 -209
-9 -10 -47 28 -59 59 -7 19 -23 60 -35 90 -12 30 -28 78 -35 106 -7 28 -17 60
-24 72 -18 34 -13 92 8 92 3 0 17 -21 29 -47z m-7426 -853 c-4 -41 -15 -68
-90 -219 -95 -191 -233 -384 -262 -366 -14 9 -12 43 4 73 8 15 25 50 37 77 12
28 43 85 68 128 187 318 252 400 243 307z m8216 -49 c17 -21 41 -58 54 -81 61
-111 78 -145 78 -153 0 -5 7 -23 15 -40 22 -48 55 -190 55 -236 0 -22 -5 -43
-12 -47 -14 -9 -58 40 -58 66 0 10 -4 21 -9 24 -5 4 -16 25 -24 49 -9 23 -25
67 -37 97 -11 30 -34 93 -49 140 -16 47 -36 102 -45 122 -17 40 -22 98 -8 98
5 0 23 -18 40 -39z"/>
<path d="M5692 7920 c-43 -18 -291 -216 -458 -367 -45 -40 -85 -73 -88 -73 -3
0 -6 7 -6 16 0 33 -25 6 -28 -31 -3 -30 -16 -52 -64 -107 -34 -37 -63 -67 -65
-65 -2 2 12 37 30 78 46 101 207 503 207 518 0 6 -18 11 -45 11 -42 0 -46 -3
-64 -38 -45 -88 -153 -181 -228 -197 -53 -11 -40 -29 16 -22 50 6 121 36 154
65 24 21 22 12 -27 -133 -165 -491 -364 -775 -544 -775 -59 0 -90 15 -113 55
-23 38 -41 39 -31 2 23 -94 129 -125 248 -72 70 31 178 138 253 250 56 83 259
335 270 335 3 0 16 -40 27 -88 25 -100 79 -220 125 -276 79 -94 225 -114 287
-38 26 33 4 121 -34 136 -26 10 -27 1 -5 -35 56 -91 -8 -144 -96 -80 -77 56
-169 188 -213 307 -50 134 -50 132 16 194 105 96 331 247 500 334 67 35 92 61
78 84 -13 20 -68 26 -102 12z"/>
<path d="M6348 7909 c-139 -20 -304 -95 -415 -188 -153 -129 -235 -289 -235
-458 1 -155 87 -253 251 -283 170 -31 360 49 592 251 41 35 60 47 56 34 -4
-11 -21 -67 -39 -124 l-33 -103 -75 -28 c-292 -106 -549 -345 -550 -510 0 -52
18 -83 60 -105 116 -60 315 62 465 285 49 73 96 161 143 268 36 81 55 95 154
111 41 6 49 10 34 16 -10 5 -45 4 -78 -1 -32 -6 -58 -8 -58 -5 -1 25 100 284
124 320 29 42 39 49 106 68 12 4 11 6 -4 15 -11 6 -44 8 -80 5 -56 -5 -63 -9
-96 -47 -115 -138 -242 -246 -358 -304 -112 -57 -322 -90 -420 -67 -58 14
-123 65 -142 110 -21 53 -9 167 25 236 36 72 179 220 274 283 204 138 416 214
540 196 56 -9 111 -57 111 -99 0 -20 4 -26 17 -23 10 2 19 11 21 20 5 25 -24
81 -50 97 -60 38 -203 50 -340 30z m162 -912 c0 -10 -57 -140 -87 -202 -78
-155 -201 -313 -276 -352 -18 -9 -52 -17 -75 -17 -64 -1 -85 28 -80 111 3 54
10 71 51 131 56 82 137 161 227 222 83 57 240 126 240 107z"/>
<path d="M5587 6370 c-6 -24 -27 -25 -121 -5 -41 9 -75 11 -85 6 -9 -5 -34
-12 -56 -15 -73 -12 -76 -28 -5 -22 72 7 106 -6 95 -36 -8 -20 -56 -28 -167
-28 -59 0 -88 4 -90 12 -3 9 -18 5 -52 -12 l-47 -25 48 -15 c49 -15 63 -25 63
-48 0 -23 -31 -25 -106 -8 -72 17 -75 17 -106 -3 -18 -11 -55 -42 -81 -69
l-49 -49 91 -23 c102 -25 125 -38 115 -63 -8 -23 -31 -21 -147 8 -54 14 -99
25 -101 25 -3 0 -25 -30 -51 -66 -47 -66 -100 -172 -128 -254 -12 -36 -20 -46
-41 -48 -22 -3 -26 -9 -32 -53 -4 -27 -10 -49 -14 -49 -4 0 -11 -11 -14 -25
-4 -14 -14 -25 -23 -25 -17 0 -15 -29 7 -145 27 -135 31 -168 37 -272 4 -79 9
-113 18 -113 11 0 45 -125 60 -225 3 -22 10 -53 15 -70 5 -16 16 -75 26 -130
24 -144 25 -146 137 -262 24 -25 48 -29 78 -13 15 8 25 7 44 -7 13 -10 25 -22
25 -28 0 -5 15 -27 33 -47 39 -45 78 -56 112 -34 13 9 33 16 44 16 10 0 22 7
25 15 4 13 10 14 26 5 11 -6 20 -17 20 -25 0 -8 7 -15 15 -15 8 0 30 -9 50
-20 38 -21 88 -26 108 -10 66 53 74 58 100 53 15 -3 27 -12 27 -20 0 -28 26
-40 88 -42 50 -1 67 3 84 19 12 11 28 20 35 20 7 0 13 5 13 10 0 6 7 10 15 10
8 0 15 5 15 10 0 14 42 -8 53 -26 4 -8 14 -14 21 -14 8 0 19 -7 26 -15 21 -26
82 -18 128 15 23 16 48 30 56 30 8 0 16 4 18 10 4 12 81 -5 86 -19 2 -6 20
-11 40 -11 30 0 42 7 74 43 20 23 38 47 38 53 0 17 51 37 64 24 17 -17 55 -11
74 12 9 12 35 41 56 65 34 38 43 58 63 146 13 56 26 116 29 132 23 135 57 309
68 350 8 28 19 79 25 115 7 36 16 81 21 100 5 19 12 60 16 90 4 30 10 62 14
70 4 8 11 48 15 87 6 63 5 74 -9 79 -11 4 -22 -1 -31 -12 -8 -11 -15 -14 -16
-9 -1 6 -2 17 -3 25 -2 8 -3 36 -4 61 -2 45 -22 81 -51 90 -7 3 -30 46 -50 96
-45 114 -128 243 -156 243 -34 1 -205 46 -217 58 -16 16 -2 42 25 42 12 0 49
-7 81 -15 33 -9 61 -14 63 -11 4 4 -79 80 -114 103 -19 13 -25 13 -36 1 -119
-114 -157 -135 -157 -84 0 18 17 40 60 78 33 29 60 55 60 59 0 14 -72 41 -79
31 -4 -7 -56 -12 -130 -13 -130 -2 -150 5 -130 43 8 14 25 18 97 20 l87 3 -39
18 c-72 32 -103 31 -213 -7 -114 -40 -131 -43 -139 -21 -9 24 13 43 72 62 67
21 54 33 -37 33 -58 0 -67 -3 -72 -20z m-77 -180 c0 -24 -35 -43 -145 -80 -85
-29 -105 -29 -105 0 0 24 8 29 110 67 102 38 140 42 140 13z m338 -11 c100
-25 122 -34 122 -54 0 -33 -34 -34 -144 -6 -113 30 -132 40 -123 65 8 21 42
20 145 -5z m-146 -75 c48 -31 90 -59 93 -64 8 -13 -6 -40 -21 -40 -13 0 -134
59 -144 70 -3 3 -20 16 -37 29 -33 23 -43 55 -20 64 18 8 34 1 129 -59z m-524
-35 c114 -67 114 -67 101 -90 -5 -10 -15 -19 -21 -19 -14 0 -191 101 -200 114
-4 6 -8 19 -8 29 0 29 37 20 128 -34z m341 -53 c116 -28 121 -31 121 -56 0
-29 -21 -30 -131 -3 -109 26 -136 41 -126 67 8 21 18 20 136 -8z m-935 -430
c-3 -15 -8 -25 -11 -23 -2 3 -1 17 3 31 3 15 8 25 11 23 2 -3 1 -17 -3 -31z
m2043 -48 c-3 -7 -5 -2 -5 12 0 14 2 19 5 13 2 -7 2 -19 0 -25z m-2060 -20
c-3 -7 -5 -2 -5 12 0 14 2 19 5 13 2 -7 2 -19 0 -25z m2070 -35 c-3 -10 -5 -4
-5 12 0 17 2 24 5 18 2 -7 2 -21 0 -30z m-1852 -134 c57 22 100 27 91 13 -3
-5 -6 -233 -6 -508 -2 -486 -4 -554 -20 -554 -14 0 -29 54 -26 94 2 22 0 52
-4 67 -11 37 -70 716 -70 802 l0 45 -90 52 c-49 28 -94 58 -101 66 -7 8 29
-11 79 -42 l91 -56 56 21z m1895 47 c0 -17 -6 -62 -15 -101 -8 -38 -22 -106
-30 -150 -9 -44 -20 -96 -25 -115 -30 -128 -50 -223 -56 -275 -3 -33 -18 -107
-31 -165 -14 -58 -28 -122 -30 -144 -4 -25 -17 -50 -39 -74 -19 -20 -34 -40
-34 -44 0 -4 -7 -8 -15 -8 -12 0 -14 19 -9 128 3 70 9 147 14 172 25 128 31
186 65 637 3 40 0 63 -7 65 -18 6 175 115 195 110 11 -3 17 -14 17 -36z m-340
-35 l-25 -7 -1 -519 -2 -520 -23 -28 c-56 -67 -91 -99 -97 -91 -4 5 -5 236 -2
514 l5 505 -65 22 c-111 38 -99 97 -102 -503 l-3 -525 -30 -17 c-16 -9 -38
-25 -49 -34 -11 -10 -23 -18 -26 -18 -14 0 -21 174 -20 539 0 207 1 390 0 407
0 27 -8 37 -55 68 -30 20 -55 39 -55 42 0 3 20 -9 44 -26 25 -16 49 -30 54
-30 6 0 36 27 68 60 32 33 68 63 80 66 13 3 50 -4 85 -16 36 -13 64 -18 68
-13 37 57 128 133 155 132 18 -1 17 -2 -4 -8z m-1384 -68 c-4 -5 -66 56 -66
65 0 3 16 -9 35 -28 19 -18 33 -35 31 -37z m43 -37 l23 -24 56 19 c30 10 65
19 76 19 13 0 47 -26 86 -65 35 -36 68 -65 72 -65 4 0 35 18 69 40 61 39 92
49 103 31 4 -5 -2 -7 -12 -4 -23 6 -22 29 -25 -526 -2 -422 -4 -469 -19 -484
-9 -9 -23 -17 -30 -17 -8 0 -20 -9 -28 -20 -18 -25 -50 -26 -50 -2 0 9 0 211
1 447 1 237 2 448 1 469 0 35 -8 47 -76 115 -41 41 -78 72 -81 69 -4 -4 -7
-239 -8 -524 -2 -448 -4 -518 -17 -524 -8 -4 -25 -12 -37 -18 -13 -7 -34 -12
-48 -12 l-25 0 0 515 0 515 -37 35 c-21 19 -33 35 -27 35 6 0 21 -11 33 -24z
m777 -47 c4 -8 0 -9 -15 -4 l-21 6 0 -499 0 -500 -27 -18 c-16 -9 -35 -26 -44
-36 -9 -10 -26 -18 -38 -18 l-21 0 -2 463 c0 254 0 474 1 488 1 21 -8 32 -54
62 -30 21 -55 40 -55 43 0 3 20 -9 44 -26 25 -16 49 -30 55 -30 6 0 38 18 72
40 63 41 92 49 105 29z"/>
<path d="M1370 3727 c-51 -17 -62 -55 -54 -192 5 -99 22 -178 53 -250 47 -108
75 -164 101 -201 16 -25 30 -47 30 -49 0 -14 169 -186 234 -238 21 -17 61 -74
101 -145 36 -64 70 -124 75 -132 50 -81 100 -171 100 -178 0 -15 -28 -23 -36
-11 -3 6 -54 42 -113 80 -58 38 -111 73 -117 78 -6 4 -21 12 -34 16 -13 4 -30
14 -38 21 -7 8 -20 14 -28 14 -8 0 -32 9 -54 20 -40 20 -152 28 -176 12 -41
-27 -44 -104 -8 -158 42 -62 199 -207 249 -229 13 -6 31 -18 42 -27 23 -21
200 -108 273 -135 99 -36 134 -46 200 -59 153 -29 174 -38 232 -95 74 -72 109
-103 201 -177 109 -89 104 -110 -15 -73 -35 11 -97 29 -138 42 -41 12 -91 27
-110 34 -19 8 -76 21 -126 31 -87 16 -91 16 -118 -1 -34 -23 -49 -57 -36 -89
12 -33 109 -110 183 -144 94 -45 164 -72 184 -72 10 0 36 -7 58 -15 60 -21
380 -21 435 1 l39 16 83 -45 c46 -25 100 -57 121 -71 21 -14 44 -26 51 -26 8
0 18 -6 24 -12 6 -7 54 -33 106 -58 53 -24 96 -50 96 -57 0 -10 -40 -13 -174
-13 -240 0 -352 -22 -408 -80 -22 -24 -28 -39 -28 -75 0 -66 36 -94 190 -146
53 -18 94 -23 225 -26 88 -3 185 0 215 5 108 20 205 43 214 53 6 5 17 9 26 9
8 0 32 9 53 20 20 11 43 20 50 20 7 0 31 13 53 30 47 35 55 36 170 10 126 -29
294 -59 397 -72 48 -6 87 -14 87 -19 0 -16 -74 -47 -130 -54 -30 -4 -70 -13
-89 -21 -18 -8 -46 -14 -61 -14 -15 0 -53 -9 -85 -20 -32 -11 -70 -20 -85 -20
-14 0 -31 -5 -37 -11 -6 -6 -29 -15 -52 -20 -45 -10 -57 -17 -102 -64 -22 -23
-29 -39 -29 -70 0 -39 3 -43 44 -63 38 -19 59 -22 172 -22 71 1 149 5 174 11
25 5 68 14 96 19 28 6 64 17 80 25 16 8 37 15 47 15 10 0 35 9 57 20 22 11 48
20 59 20 11 0 23 5 26 10 4 6 21 17 38 25 56 25 161 85 197 113 117 91 190
124 228 103 10 -5 39 -42 63 -81 150 -242 423 -548 582 -652 52 -34 68 -35
107 -1 29 24 80 119 80 148 0 7 7 18 15 25 8 7 15 20 15 29 0 9 9 34 20 56 11
22 20 43 20 47 0 4 18 45 40 92 22 47 40 87 40 89 0 3 15 38 34 79 18 40 44
96 57 125 13 28 33 56 45 62 34 15 216 -14 226 -37 2 -4 23 -20 48 -37 25 -16
47 -32 50 -35 12 -12 72 -51 92 -60 13 -6 37 -19 53 -30 17 -11 37 -23 45 -26
127 -56 247 -88 410 -110 47 -6 138 18 152 40 16 23 8 93 -12 119 -24 30 -105
87 -124 87 -6 0 -16 4 -22 10 -5 5 -54 22 -109 38 -54 16 -100 33 -102 39 -3
7 15 14 44 18 26 3 78 13 114 21 81 19 203 14 274 -10 92 -31 116 -38 208 -57
291 -60 705 -37 769 41 23 28 23 88 0 116 -48 61 -238 100 -429 90 -93 -4
-113 -3 -113 9 0 17 38 45 62 45 18 0 29 5 198 90 96 47 114 53 200 61 52 4
104 10 115 14 11 3 63 9 115 14 226 22 433 74 588 149 105 51 124 85 76 137
-52 56 -228 62 -402 15 -40 -11 -79 -20 -87 -20 -33 0 -11 32 68 96 45 38 84
71 87 74 24 29 117 90 135 90 13 0 36 5 52 11 15 6 55 15 88 20 32 6 64 14 70
18 5 5 27 11 48 15 42 8 155 44 237 76 30 12 66 26 80 31 23 9 83 39 256 129
37 19 94 60 126 91 52 51 58 60 58 97 0 34 -6 47 -36 76 -75 72 -163 60 -411
-56 -24 -11 -45 -23 -48 -28 -3 -5 -19 -11 -35 -15 -17 -4 -30 -10 -30 -15 0
-4 -15 -14 -32 -21 -18 -7 -36 -14 -40 -17 -25 -13 3 34 80 133 90 117 120
160 200 281 26 39 90 136 143 215 192 288 248 385 315 546 38 90 42 141 18
183 -17 28 -62 60 -85 60 -14 0 -95 -64 -120 -95 -9 -11 -28 -32 -41 -46 -14
-15 -36 -44 -48 -65 -13 -22 -27 -41 -31 -44 -3 -3 -9 -15 -13 -27 -4 -13 -11
-23 -16 -23 -4 0 -13 -12 -19 -27 -6 -16 -15 -35 -20 -43 -5 -8 -20 -37 -31
-65 -12 -27 -28 -63 -36 -80 -19 -42 -64 -182 -64 -201 0 -8 -6 -36 -14 -62
-8 -26 -18 -69 -24 -97 -22 -104 -34 -144 -48 -156 -8 -6 -14 -16 -14 -21 0
-16 -87 -141 -142 -204 -29 -33 -153 -161 -275 -285 -122 -123 -235 -239 -252
-256 -59 -63 -70 -27 -17 54 61 93 138 263 152 335 11 58 11 75 0 102 -16 38
-43 62 -79 71 -24 6 -34 0 -87 -55 -33 -34 -60 -67 -60 -73 0 -6 -7 -18 -15
-27 -17 -18 -125 -230 -125 -245 0 -5 -6 -21 -13 -35 -14 -28 -52 -143 -66
-205 -46 -194 -69 -242 -132 -280 -22 -13 -157 -102 -189 -125 -14 -9 -35 -20
-48 -24 -12 -4 -22 -12 -22 -17 0 -5 -13 -9 -30 -9 -31 0 -39 13 -17 27 6 4
48 53 91 108 44 55 82 102 85 105 20 17 82 155 87 191 7 50 -15 88 -66 114
-26 13 -33 13 -74 -5 -49 -21 -166 -132 -241 -230 -55 -71 -137 -218 -169
-300 -13 -36 -34 -91 -47 -123 -26 -69 -29 -71 -269 -156 -19 -7 -51 -17 -70
-22 -19 -5 -57 -16 -85 -23 -27 -8 -75 -22 -106 -30 -59 -17 -129 -21 -129 -8
1 9 84 62 98 62 6 0 12 4 14 9 2 5 28 22 59 38 97 52 185 112 227 156 63 66
80 142 41 191 -39 50 -126 28 -301 -77 -130 -77 -250 -177 -395 -327 l-102
-105 -200 -3 c-195 -3 -241 2 -241 29 0 5 16 44 35 85 19 41 35 77 35 80 0 3
8 24 19 47 15 35 65 160 146 367 8 19 17 46 21 60 3 14 12 39 19 55 45 108 58
178 59 311 1 132 1 134 -26 160 -56 56 -170 76 -280 48 -40 -10 -80 -24 -89
-31 -8 -7 -20 -13 -25 -13 -16 0 -113 -76 -158 -123 -116 -123 -139 -157 -251
-372 -26 -49 -53 -97 -59 -105 -7 -8 -27 -45 -44 -81 -28 -59 -56 -89 -69 -75
-4 4 -26 95 -44 186 -14 74 -49 181 -80 248 -16 35 -29 65 -29 67 0 14 -68
100 -103 130 -83 72 -180 102 -286 88 -39 -5 -93 -47 -138 -106 -51 -66 -49
-454 3 -647 32 -118 96 -301 114 -325 13 -17 20 -64 11 -69 -4 -3 -75 -6 -158
-7 -173 -1 -164 -4 -363 140 -173 124 -235 170 -366 271 -60 47 -117 90 -126
95 -8 6 -33 22 -55 37 -111 74 -183 89 -224 46 -36 -39 -40 -63 -19 -113 34
-80 220 -248 348 -316 64 -33 80 -59 38 -59 -35 0 -361 110 -422 143 -28 14
-94 101 -94 122 0 9 -33 62 -130 210 -95 144 -275 332 -365 381 -44 23 -77 13
-98 -31 -18 -39 -23 -90 -8 -100 5 -3 15 -22 21 -41 7 -20 25 -55 39 -78 15
-22 46 -70 69 -105 44 -67 51 -91 27 -91 -8 0 -15 5 -15 10 0 6 -8 14 -17 17
-27 10 -222 140 -365 243 -72 53 -108 116 -127 230 -18 113 -95 395 -126 465
-7 17 -28 59 -46 95 -18 36 -37 75 -43 86 -11 22 -65 64 -82 64 -22 -1 -65
-52 -72 -86 -10 -49 5 -227 23 -270 7 -18 17 -54 20 -79 6 -37 4 -45 -8 -45
-9 0 -26 14 -39 31 -13 16 -37 47 -53 67 -17 20 -39 48 -48 62 -72 103 -93
135 -102 149 -5 9 -33 52 -61 96 -27 44 -57 96 -66 115 -38 84 -51 117 -59
145 -4 17 -24 75 -44 130 -20 55 -50 141 -66 190 -97 286 -168 450 -220 507
-39 42 -70 51 -119 35z m106 -212 c14 -33 32 -73 39 -90 7 -16 19 -46 25 -65
7 -19 29 -82 50 -140 20 -58 47 -133 60 -168 12 -35 20 -66 17 -68 -7 -7 -57
26 -57 36 0 5 -6 15 -13 22 -18 19 -88 144 -114 203 -43 102 -53 132 -68 216
-21 117 -20 121 11 117 20 -2 30 -14 50 -63z m8488 28 c-9 -38 -117 -255 -154
-310 -17 -24 -30 -46 -30 -48 0 -2 -34 -54 -75 -116 -41 -61 -75 -116 -75
-120 0 -14 -30 -10 -31 4 -8 87 178 448 299 579 43 47 76 52 66 11z m-7608
-1151 c62 -165 65 -174 76 -226 17 -89 -8 -103 -45 -23 -57 121 -67 145 -67
164 0 12 -7 34 -15 49 -19 36 -21 144 -2 144 6 0 30 -49 53 -108z m-776 63 c7
-8 18 -15 25 -15 7 0 24 -9 38 -20 14 -11 32 -20 40 -20 7 0 22 -9 32 -20 10
-11 22 -20 27 -20 4 0 37 -20 73 -45 36 -25 95 -66 133 -92 110 -76 126 -87
140 -100 7 -7 19 -13 25 -13 7 0 25 -14 41 -30 26 -26 27 -30 11 -36 -10 -4
-31 0 -49 9 -17 9 -44 19 -61 23 -82 18 -270 125 -403 228 -63 49 -152 140
-152 156 0 16 66 12 80 -5z m8228 -87 c3 -15 -76 -82 -138 -117 -58 -33 -190
-96 -265 -127 -16 -7 -46 -19 -65 -27 -123 -52 -200 -71 -200 -49 0 10 176
132 190 132 5 0 15 7 23 15 8 8 42 28 76 45 33 17 63 35 66 40 4 6 13 10 22
10 9 0 24 6 32 13 23 18 119 55 166 63 22 4 47 10 55 15 20 11 34 6 38 -13z
m-1040 -101 c9 -44 -196 -424 -229 -427 -17 -1 -16 32 2 66 10 21 19 43 19 49
0 21 116 243 151 289 34 46 51 53 57 23z m-2442 -212 c28 -68 -7 -228 -111
-510 -15 -38 -30 -83 -34 -100 -5 -16 -15 -46 -24 -65 -9 -19 -25 -62 -38 -95
-12 -33 -34 -91 -50 -129 -16 -38 -29 -73 -29 -79 0 -5 -9 -28 -19 -51 -11
-23 -29 -68 -41 -101 -12 -33 -26 -67 -30 -76 -4 -8 -20 -47 -35 -85 -15 -38
-51 -132 -81 -209 -30 -77 -61 -153 -69 -170 -7 -16 -17 -41 -21 -55 -9 -33
-42 -80 -57 -80 -32 0 -265 275 -369 435 -66 102 -148 239 -148 249 0 2 -18
43 -40 90 -22 47 -40 89 -40 94 0 5 -7 23 -15 38 -8 16 -15 38 -15 49 0 12 -4
25 -9 30 -17 17 -59 215 -72 335 -17 158 0 332 37 396 36 62 53 68 96 39 36
-25 81 -78 98 -117 5 -13 14 -30 19 -38 19 -30 51 -101 51 -111 0 -6 7 -25 14
-42 8 -18 19 -54 25 -82 5 -27 14 -68 19 -90 6 -22 20 -85 31 -140 12 -55 28
-128 36 -162 8 -34 15 -70 15 -80 0 -44 73 -142 107 -143 18 0 73 50 73 67 0
8 6 27 14 41 23 44 56 118 56 128 1 5 9 27 20 49 11 22 19 43 20 47 0 15 85
186 115 233 18 28 43 68 56 91 80 135 322 402 383 422 46 15 46 15 62 -23z
m-3011 -536 c16 -24 33 -46 37 -49 10 -8 55 -76 73 -110 9 -18 11 -31 5 -35
-27 -17 -192 135 -272 250 -84 122 -98 142 -108 170 -8 22 -8 30 2 37 15 10
213 -188 263 -263z m4815 226 c-5 -14 -17 -37 -27 -52 -17 -27 -150 -198 -180
-231 -8 -10 -34 -39 -58 -67 -34 -38 -47 -47 -56 -38 -21 21 103 209 212 321
93 95 128 116 109 67z m-5805 -130 c33 -9 65 -21 70 -25 6 -5 28 -11 50 -15
22 -4 49 -12 60 -18 21 -11 118 -41 193 -58 41 -10 56 -32 29 -42 -25 -10
-223 11 -277 28 -99 33 -165 59 -181 72 -8 7 -19 13 -23 13 -15 0 -66 45 -66
58 0 17 55 12 145 -13z m6655 -50 c10 -12 7 -16 -16 -26 -16 -6 -38 -16 -49
-21 -18 -10 -40 -16 -165 -48 -25 -7 -61 -17 -80 -23 -19 -6 -64 -16 -100 -22
-36 -7 -86 -18 -111 -25 -44 -13 -79 -9 -79 7 0 9 20 20 80 48 19 9 49 22 65
30 17 7 64 23 105 35 41 11 91 26 110 32 29 10 102 19 206 26 12 1 27 -5 34
-13z m-5094 -145 c28 -19 69 -50 90 -67 21 -18 95 -76 164 -128 165 -126 192
-163 94 -130 -131 44 -289 151 -411 278 -58 59 -72 84 -57 99 9 10 66 -15 120
-52z m3474 -43 c0 -19 -31 -44 -153 -127 -48 -32 -211 -116 -244 -125 -39 -11
-28 28 18 61 22 16 46 34 52 39 54 47 269 164 305 164 12 1 22 -5 22 -12z
m-3600 -372 c15 -14 17 -21 9 -32 -6 -7 -19 -13 -28 -13 -8 0 -38 -8 -66 -19
-151 -57 -379 -69 -546 -30 -49 12 -89 25 -89 29 0 5 -15 12 -32 15 -54 12
-88 54 -55 69 6 3 187 4 400 2 354 -3 390 -5 407 -21z m4310 -5 c41 -5 82 -12
91 -15 22 -7 33 -35 19 -49 -18 -18 -294 -29 -446 -18 -144 10 -184 21 -184
48 0 20 6 22 170 38 147 15 216 14 350 -4z m-1275 -206 c260 -58 395 -116 350
-150 -28 -22 -353 50 -389 87 -6 5 -17 9 -25 9 -32 -1 -110 45 -111 64 0 17 5
18 53 12 28 -3 84 -13 122 -22z m-2011 7 c7 -11 -51 -50 -127 -86 -31 -15 -60
-31 -63 -36 -3 -5 -14 -9 -26 -9 -11 0 -32 -6 -46 -14 -46 -23 -153 -53 -250
-71 -106 -20 -280 -17 -307 5 -32 26 -15 35 140 70 28 6 75 18 105 26 30 8 75
19 100 24 25 5 65 14 90 20 75 19 131 32 218 50 46 10 86 20 89 24 10 9 71 7
77 -3z"/>
<path d="M6220 3710 c-231 -28 -433 -196 -468 -390 -29 -158 57 -260 219 -260
101 0 212 52 335 157 35 29 64 50 64 46 0 -5 -11 -41 -23 -82 l-23 -74 -84
-36 c-108 -47 -190 -102 -263 -179 -63 -67 -87 -112 -87 -167 0 -79 89 -101
186 -46 94 54 205 197 264 341 30 72 38 80 102 96 l53 14 -56 -4 -57 -4 35 96
c46 130 74 171 116 172 11 0 15 5 11 11 -4 7 -24 9 -49 6 -39 -4 -53 -14 -142
-103 -110 -112 -181 -154 -298 -179 -127 -27 -201 -16 -251 36 -26 27 -29 37
-29 92 0 70 28 128 97 203 74 80 245 185 357 218 109 32 211 11 211 -44 0 -10
5 -22 10 -25 16 -10 24 24 12 49 -21 47 -121 70 -242 56z m84 -652 c-34 -112
-160 -312 -223 -354 -43 -28 -92 -34 -116 -14 -22 18 -19 83 6 133 36 70 145
169 239 216 45 22 87 41 92 41 5 0 6 -10 2 -22z"/>
<path d="M2785 3689 c-199 -27 -340 -93 -386 -181 -12 -24 -19 -57 -19 -92 0
-53 2 -57 38 -80 40 -26 92 -42 92 -28 0 4 -16 14 -35 21 -20 7 -43 23 -52 37
-14 22 -14 28 1 69 43 111 223 206 444 235 192 25 326 -35 361 -162 59 -211
-255 -498 -490 -449 -30 7 -65 20 -78 30 l-24 19 74 136 c92 170 160 262 208
284 49 22 49 22 27 38 -36 26 -73 17 -122 -28 -57 -52 -84 -91 -94 -131 -8
-31 -113 -263 -124 -275 -4 -3 -22 10 -42 29 -31 30 -34 38 -29 71 5 28 3 38
-7 38 -29 0 -34 -18 -37 -117 -2 -106 10 -154 43 -166 20 -8 61 26 76 63 7 16
14 30 17 30 2 0 23 -10 46 -22 37 -20 57 -23 157 -23 112 0 117 1 193 37 95
46 173 117 218 201 32 58 34 68 34 159 0 91 -2 99 -30 140 -35 49 -106 92
-178 108 -73 15 -204 20 -282 9z m-220 -559 l28 -30 -18 -40 c-18 -40 -32 -50
-39 -27 -9 27 -14 127 -7 127 4 0 20 -13 36 -30z"/>
<path d="M8994 3542 c-6 -4 -29 -41 -52 -83 -35 -63 -47 -78 -72 -83 -34 -6
-42 -36 -9 -36 21 0 21 0 -2 -37 -35 -58 -107 -145 -143 -171 -50 -39 -128
-72 -168 -72 -81 0 -83 77 -5 173 73 89 187 150 187 99 0 -36 -101 -113 -190
-145 -8 -3 -1 -6 16 -6 41 -1 147 52 179 90 54 65 14 134 -64 110 -64 -19
-159 -89 -217 -161 -63 -79 -155 -153 -181 -148 -32 6 -24 100 15 176 35 69
38 82 20 82 -25 0 -115 -48 -151 -80 -44 -38 -46 -31 -12 43 64 139 -38 108
-194 -59 -39 -42 -71 -72 -71 -67 0 5 16 48 35 97 37 90 37 106 5 106 -13 0
-27 -17 -45 -51 -54 -109 -192 -249 -244 -249 -21 0 -11 68 18 123 16 30 47
78 70 107 59 74 56 80 -34 80 -41 0 -75 2 -75 4 0 2 12 25 26 50 29 52 27 64
-8 46 -62 -32 -112 -110 -78 -122 30 -10 -164 -241 -232 -277 -77 -40 -78 55
-2 199 27 49 46 91 44 94 -3 2 -16 7 -30 11 -22 5 -28 0 -50 -42 -37 -70 -131
-194 -176 -231 -28 -24 -47 -32 -69 -30 -28 3 -30 6 -29 40 1 44 33 107 86
170 33 39 37 49 24 54 -35 13 -62 -6 -110 -80 -54 -84 -116 -146 -146 -146
-32 0 -33 23 -6 75 36 66 33 115 -5 115 -16 0 -19 -8 -19 -50 0 -38 -5 -54
-20 -67 -11 -10 -20 -25 -20 -35 0 -24 -64 -86 -97 -94 -39 -10 -58 7 -61 55
-4 56 28 122 90 184 48 48 98 64 98 32 0 -8 5 -15 10 -15 12 0 13 30 2 46 -27
42 -112 14 -176 -57 -68 -76 -95 -178 -60 -227 37 -53 109 -51 173 4 23 20 42
30 46 24 14 -23 71 -10 111 24 l40 34 1 -36 c1 -45 31 -72 81 -72 45 0 90 34
133 100 18 27 33 50 34 50 1 0 -2 -23 -6 -51 -14 -90 18 -129 91 -109 52 14
145 104 224 218 32 46 64 86 71 88 21 8 80 -11 83 -27 1 -8 -18 -39 -43 -68
-80 -94 -101 -154 -69 -199 38 -55 134 -6 247 128 l38 45 -34 -97 c-20 -54
-31 -98 -27 -98 29 0 66 33 126 112 70 93 147 168 170 168 19 0 19 -1 -26 -90
-22 -44 -40 -86 -40 -95 0 -28 37 -15 69 25 33 42 126 120 142 120 4 0 -1 -21
-11 -46 -77 -178 4 -250 149 -133 l61 49 0 -28 c0 -44 39 -74 104 -80 71 -6
145 28 223 100 33 31 53 45 49 33 -40 -105 7 -160 98 -115 58 28 193 170 162
170 -2 0 -32 -29 -65 -64 -34 -34 -77 -71 -96 -82 -32 -17 -36 -17 -51 -2 -15
14 -15 23 -5 65 7 26 30 82 52 124 l40 77 62 6 c91 10 109 28 24 24 -37 -2
-67 -1 -67 2 0 5 39 64 74 114 15 21 16 29 6 41 -14 16 -29 19 -46 7z"/>
<path d="M4856 3490 c-52 -40 -52 -40 -36 -50 30 -19 51 -11 66 26 21 51 14
57 -30 24z"/>
<path d="M4501 3460 c-50 -37 -70 -72 -51 -94 10 -13 4 -28 -36 -88 -63 -95
-120 -150 -196 -187 -154 -77 -216 2 -107 139 50 63 126 119 162 120 74 0 -22
-106 -138 -153 -39 -16 -39 -16 -10 -16 43 -1 146 50 178 88 34 40 36 84 5
105 -31 22 -46 20 -118 -16 -47 -23 -89 -58 -164 -135 -104 -108 -160 -145
-233 -158 -80 -13 -103 26 -63 112 48 107 220 223 220 148 0 -35 17 -31 25 6
9 38 -5 53 -48 53 -62 0 -127 -43 -238 -156 -104 -106 -142 -129 -155 -94 -3
7 6 35 20 61 36 66 33 115 -5 115 -16 0 -19 -7 -19 -44 0 -54 -8 -76 -26 -76
-8 0 -14 -10 -14 -25 0 -30 -59 -92 -97 -101 -39 -10 -58 7 -61 55 -4 56 28
122 90 184 48 48 98 64 98 32 0 -8 5 -15 10 -15 20 0 9 40 -15 56 -24 15 -28
15 -70 0 -115 -44 -203 -225 -145 -299 39 -49 119 -41 181 19 17 16 29 22 33
15 13 -20 68 -12 103 15 l33 25 0 -26 c0 -16 12 -39 31 -57 29 -29 33 -30 92
-26 73 6 136 35 190 86 l37 36 0 -35 c0 -52 35 -81 104 -87 107 -9 205 59 323
224 69 96 79 103 127 84 36 -13 32 -34 -18 -93 -57 -68 -76 -107 -76 -156 0
-30 5 -43 19 -51 47 -25 98 -4 183 78 l58 55 -6 -34 c-4 -19 -7 -36 -6 -39 0
-29 4 -41 19 -55 30 -30 101 -5 176 63 23 22 27 23 27 8 0 -9 11 -28 25 -41
50 -51 134 -21 223 80 l39 45 -5 -69 c-4 -66 -3 -70 22 -86 23 -15 33 -16 66
-6 40 12 134 90 171 143 38 53 13 40 -50 -25 -34 -35 -77 -72 -96 -83 -33 -17
-36 -17 -52 -2 -14 15 -15 24 -4 70 6 29 23 73 36 97 31 53 31 57 3 65 -19 4
-41 -12 -123 -93 -150 -149 -205 -178 -205 -110 0 108 235 284 319 239 17 -8
21 -8 21 3 0 22 -54 40 -97 32 -77 -14 -155 -66 -268 -180 -60 -60 -122 -116
-137 -124 -72 -37 -77 31 -13 167 47 100 50 122 15 122 -16 0 -27 -13 -42 -47
-50 -113 -199 -266 -243 -249 -36 13 -1 106 84 220 28 38 48 73 44 77 -5 5
-41 9 -81 11 l-72 3 23 35 c51 76 39 91 -32 40z"/>
</g>
</svg>
