<?xml version="1.0" standalone="no"?>
<!DOCTYPE svg PUBLIC "-//W3C//DTD SVG 20010904//EN"
 "http://www.w3.org/TR/2001/REC-SVG-20010904/DTD/svg10.dtd">
<svg version="1.0" xmlns="http://www.w3.org/2000/svg"
 width="790.000000pt" height="744.000000pt" viewBox="0 0 790.000000 744.000000"
 preserveAspectRatio="xMidYMid meet">

<g transform="translate(0.000000,744.000000) scale(0.100000,-0.100000)"
fill="#000000" stroke="none">
<path d="M3350 7073 c-70 -72 -111 -143 -120 -208 -5 -40 -5 -40 -65 -53 -60
-13 -255 -63 -328 -84 -21 -6 -40 -8 -43 -6 -2 3 10 35 27 72 43 91 52 192 20
220 -19 17 -25 18 -62 7 -96 -29 -204 -192 -217 -329 -5 -42 -12 -68 -22 -73
-8 -5 -71 -35 -140 -68 -69 -33 -167 -85 -218 -116 -52 -31 -96 -54 -99 -52
-2 3 1 58 8 122 15 133 11 148 -43 153 -46 4 -90 -33 -115 -96 -19 -50 -26
-210 -10 -264 6 -24 2 -31 -49 -70 -31 -24 -104 -83 -161 -131 -57 -49 -107
-86 -110 -83 -4 3 -1 35 5 70 28 148 2 185 -94 140 -75 -36 -102 -132 -84
-295 l10 -90 -77 -92 c-43 -51 -83 -96 -89 -102 -12 -11 -132 -176 -159 -217
-9 -16 -20 -28 -24 -28 -4 0 -11 40 -17 89 -9 73 -16 96 -38 126 -24 31 -33
36 -63 33 -58 -5 -77 -41 -81 -149 -5 -105 14 -169 65 -229 l33 -39 -30 -53
c-35 -61 -140 -277 -140 -288 0 -4 -7 -13 -15 -20 -12 -10 -15 -9 -15 5 0 34
-40 153 -61 179 -42 53 -82 22 -94 -72 -10 -74 11 -174 52 -254 l35 -67 -32
-113 c-36 -124 -61 -227 -81 -331 -15 -77 -22 -76 -58 13 -27 64 -51 94 -92
110 -38 16 -87 -3 -95 -37 -8 -30 27 -139 62 -196 31 -49 96 -113 124 -122 19
-6 19 -16 18 -213 0 -114 -3 -211 -5 -215 -3 -5 -19 5 -37 21 -52 49 -138 103
-160 100 -17 -2 -22 -11 -24 -48 -2 -24 -1 -59 3 -76 9 -49 107 -149 185 -188
64 -32 65 -33 72 -82 7 -52 31 -180 48 -254 6 -25 13 -62 17 -83 l6 -38 -52
32 c-32 20 -68 34 -99 37 -92 8 -123 -36 -78 -112 47 -80 122 -127 291 -180 6
-2 25 -46 44 -97 19 -52 51 -134 72 -184 42 -101 40 -105 -36 -86 -74 19 -162
14 -185 -9 -29 -29 -25 -48 17 -87 78 -74 162 -111 274 -121 l74 -7 55 -100
c30 -56 74 -131 98 -168 23 -36 42 -68 42 -69 0 -2 -56 -3 -123 -3 -133 0
-157 -8 -157 -50 0 -31 49 -71 130 -108 57 -26 79 -30 182 -35 106 -4 119 -7
131 -26 16 -24 177 -217 201 -242 24 -23 13 -31 -52 -36 -32 -3 -81 -16 -110
-28 -88 -38 -79 -83 26 -133 55 -26 82 -33 153 -35 62 -3 96 1 123 12 47 20
72 20 83 3 9 -15 231 -200 260 -215 25 -14 17 -20 -68 -43 -116 -32 -168 -58
-175 -86 -11 -41 20 -61 101 -69 83 -8 190 15 247 52 43 28 69 30 101 10 35
-23 167 -95 225 -122 28 -14 52 -29 52 -32 -1 -4 -35 -29 -78 -57 -126 -82
-137 -137 -28 -143 88 -5 163 23 254 96 l43 34 92 -30 c51 -17 113 -36 140
-43 51 -12 59 -25 25 -38 -45 -17 -105 -69 -122 -104 -33 -70 8 -125 84 -112
47 8 152 75 182 116 l22 29 147 0 c95 0 150 -4 154 -11 4 -6 -2 -20 -13 -32
-48 -52 -53 -107 -13 -148 67 -66 163 -17 234 119 25 47 44 72 59 76 13 3 69
6 126 6 l102 0 -29 -57 c-16 -32 -34 -77 -41 -100 -11 -36 -11 -46 4 -68 22
-33 53 -32 102 4 72 52 117 120 129 191 8 47 23 56 103 64 37 4 107 14 155 22
49 9 91 14 93 11 2 -2 -10 -21 -27 -43 -62 -78 -74 -140 -34 -179 71 -72 175
8 225 173 12 39 27 76 35 82 14 12 334 94 341 87 2 -2 -12 -39 -32 -82 -45
-97 -52 -136 -29 -159 55 -55 184 83 225 242 l17 64 159 64 c172 69 190 74
179 46 -4 -9 -9 -66 -12 -127 -5 -102 -4 -111 15 -128 42 -38 112 4 148 88 14
30 18 68 18 158 l1 118 100 57 c55 32 110 64 122 72 31 20 35 11 22 -49 -27
-126 39 -203 132 -155 60 31 92 160 71 288 -9 55 -8 61 13 80 48 46 171 145
180 146 6 0 13 -22 17 -50 8 -67 38 -100 88 -100 63 0 81 31 92 152 5 57 6
126 3 153 l-5 50 85 105 c47 58 85 108 85 113 0 4 7 7 15 7 11 0 15 -11 15
-38 0 -50 23 -82 60 -82 73 0 117 147 85 280 l-17 71 56 112 c47 95 126 284
126 302 0 3 7 22 16 43 l15 37 26 -53 c25 -53 57 -77 87 -66 20 8 36 49 42
113 7 64 -18 153 -62 223 l-26 40 26 177 c14 97 27 191 28 210 l3 34 40 -54
c48 -64 77 -73 118 -35 53 49 28 154 -67 284 -26 34 -46 72 -46 85 0 13 -4 27
-9 33 -5 5 -13 92 -17 193 l-7 183 39 -25 c21 -14 56 -31 77 -38 47 -17 57 -6
57 65 0 63 -22 100 -123 202 l-79 82 -24 143 c-13 78 -22 145 -19 147 2 3 27
-5 54 -17 63 -27 112 -27 135 -2 25 27 14 53 -47 113 -57 55 -111 94 -173 126
-40 20 -43 25 -79 132 -20 61 -35 113 -32 116 2 2 25 -5 51 -16 86 -36 126
-24 126 39 0 79 -73 142 -193 167 -39 8 -74 17 -78 20 -8 4 -119 220 -119 230
0 3 7 3 16 0 9 -4 57 -13 106 -21 80 -13 94 -13 119 1 22 11 29 22 29 43 0 74
-215 179 -367 181 -39 0 -45 4 -89 63 -27 34 -72 90 -101 125 -29 35 -53 67
-53 71 0 5 41 8 91 7 88 -1 91 0 115 27 28 33 31 77 6 100 -45 41 -90 49 -242
46 l-146 -4 -106 90 c-59 50 -107 93 -107 98 -1 4 17 14 38 23 50 20 73 54 69
102 -6 76 -106 105 -267 78 l-93 -16 -66 37 c-36 21 -91 53 -121 71 -31 18
-64 36 -73 39 -27 8 -22 19 20 44 52 31 112 90 112 109 0 73 -257 90 -403 28
l-49 -21 -81 32 c-89 36 -183 72 -236 92 l-33 12 38 20 c58 29 104 76 104 106
0 15 -9 37 -20 51 -17 22 -26 25 -83 24 -69 -2 -142 -32 -242 -100 l-50 -34
-145 29 c-80 15 -185 34 -233 41 l-88 13 59 61 c78 80 90 103 66 126 -11 10
-26 20 -34 21 -64 11 -255 -73 -333 -146 l-48 -45 -117 -1 c-64 0 -155 -4
-202 -8 -47 -5 -88 -7 -92 -5 -3 2 7 34 22 71 37 90 48 173 25 196 -30 31 -56
20 -125 -50z m582 -340 c25 -54 161 -197 195 -205 12 -3 32 1 43 9 29 21 23
67 -19 152 -17 35 -31 65 -31 68 0 8 308 -38 346 -51 6 -2 23 -29 38 -59 63
-129 269 -256 306 -188 17 34 12 49 -45 116 -67 78 -62 80 87 31 224 -74 238
-81 238 -130 0 -99 118 -316 171 -316 58 0 72 33 54 126 -7 38 -16 76 -20 85
-5 12 2 18 27 23 27 5 49 -1 123 -38 50 -25 128 -68 173 -97 78 -48 83 -54 77
-78 -17 -64 -17 -210 0 -278 30 -118 58 -153 111 -133 l27 11 -8 154 -7 155
29 0 c20 0 54 -21 116 -69 139 -109 200 -169 192 -189 -35 -84 -47 -270 -22
-342 13 -39 48 -51 81 -27 19 14 55 160 56 224 0 17 4 34 8 37 11 7 89 -75
186 -193 74 -90 76 -94 61 -117 -8 -13 -21 -34 -29 -46 -33 -52 -49 -139 -44
-237 4 -76 9 -97 24 -108 53 -39 93 3 140 147 15 47 31 89 35 94 8 9 61 -71
121 -181 l39 -72 -25 -34 c-32 -42 -71 -130 -80 -182 -4 -22 -9 -48 -12 -57
-6 -19 28 -58 51 -58 21 0 80 55 112 105 15 25 32 44 37 42 11 -4 53 -105 77
-187 l19 -65 -48 -45 c-52 -49 -105 -120 -127 -174 -12 -29 -12 -36 1 -54 27
-40 80 -23 172 55 35 31 54 40 57 31 6 -18 51 -251 59 -309 l7 -46 -58 -34
c-75 -44 -173 -172 -173 -225 0 -24 29 -54 52 -54 23 0 85 42 148 100 l45 41
6 -63 c4 -35 7 -140 8 -235 l1 -171 -66 -22 c-76 -25 -152 -93 -194 -172 -20
-39 -22 -50 -12 -72 9 -19 19 -26 41 -26 28 0 149 57 181 85 35 31 43 23 41
-40 -2 -74 -28 -276 -47 -372 -8 -40 -14 -74 -14 -77 0 -3 -19 -10 -42 -17
-76 -20 -147 -61 -198 -115 -80 -84 -64 -134 43 -134 23 0 59 5 80 11 22 6 41
8 44 5 23 -23 -187 -495 -217 -488 -125 29 -239 21 -302 -22 -43 -29 -50 -81
-15 -114 29 -27 116 -45 180 -36 27 3 47 2 47 -4 0 -10 -96 -144 -154 -215
-45 -56 -72 -60 -137 -22 -36 20 -57 25 -121 25 -42 0 -88 -4 -102 -10 -33
-12 -44 -54 -22 -79 20 -22 113 -58 174 -67 24 -4 42 -12 42 -19 0 -16 -122
-130 -209 -196 l-64 -49 -33 30 c-90 78 -322 87 -332 12 -2 -13 2 -30 9 -38
16 -19 108 -65 167 -84 23 -7 42 -16 42 -19 0 -15 -282 -181 -307 -181 -10 0
-41 16 -68 36 -143 102 -252 121 -295 51 -30 -48 -26 -80 14 -115 19 -16 52
-35 73 -42 83 -27 83 -29 -6 -66 -45 -19 -101 -39 -124 -45 -42 -11 -42 -11
-92 36 -52 49 -165 108 -229 120 -51 8 -76 -13 -76 -66 0 -48 31 -84 112 -133
l58 -34 -28 -10 c-39 -16 -244 -72 -263 -72 -9 0 -31 19 -50 42 -49 62 -93 98
-168 140 -73 42 -96 46 -123 21 -33 -30 -23 -78 27 -132 25 -27 64 -61 86 -77
28 -19 36 -30 27 -35 -13 -7 -224 -42 -323 -53 -27 -4 -55 -3 -60 1 -6 5 -23
29 -38 55 -31 54 -128 144 -165 153 -37 9 -75 -34 -66 -73 10 -40 31 -78 66
-118 40 -45 30 -53 -74 -56 -166 -4 -148 -10 -179 51 -46 89 -150 183 -182
165 -44 -25 -57 -48 -57 -100 0 -42 5 -59 26 -83 14 -17 23 -35 19 -41 -7 -11
-234 -14 -251 -2 -6 4 -14 24 -18 44 -16 90 -92 238 -142 277 -33 26 -95 28
-116 4 -28 -33 -29 -58 -2 -137 14 -43 24 -79 22 -81 -7 -7 -118 25 -172 49
-46 21 -53 28 -65 67 -34 116 -141 279 -183 279 -49 0 -62 -82 -29 -177 10
-29 15 -53 12 -53 -15 0 -214 106 -235 125 -14 13 -25 38 -29 67 -8 56 -70
200 -124 288 -34 56 -44 65 -69 65 -52 0 -66 -62 -40 -182 9 -44 9 -63 2 -63
-12 0 -151 110 -230 182 l-49 44 13 53 c24 100 -1 249 -60 366 -22 43 -29 50
-55 50 -48 0 -60 -37 -60 -183 l0 -124 -52 56 c-29 31 -77 87 -108 125 l-56
69 18 54 c27 80 26 297 -2 353 -16 32 -26 41 -51 43 -26 2 -36 -3 -51 -25 -30
-45 -42 -74 -56 -135 -7 -35 -16 -54 -23 -50 -17 12 -110 163 -150 245 -37 74
-38 78 -22 104 38 67 71 188 76 280 2 51 2 104 -2 117 -8 31 -39 50 -67 41
-25 -8 -86 -101 -109 -169 -21 -60 -33 -67 -48 -29 -6 15 -22 57 -35 93 -14
36 -35 94 -48 130 l-22 65 41 85 c48 96 68 205 58 304 -7 69 -18 86 -55 86
-31 0 -55 -23 -99 -93 -17 -26 -33 -44 -36 -39 -7 12 -24 88 -41 186 l-14 79
46 46 c98 99 173 239 173 322 0 46 -2 50 -34 66 -32 15 -36 14 -72 -3 -21 -11
-57 -42 -79 -71 -22 -28 -43 -52 -46 -52 -15 -2 -20 79 -13 192 7 116 7 120
38 151 72 71 165 223 202 329 12 35 12 43 0 62 -30 46 -62 38 -143 -39 -32
-29 -33 -29 -33 -8 0 66 72 324 100 358 7 7 27 16 46 20 37 7 141 69 188 113
29 26 67 82 79 114 8 22 -25 57 -53 57 -11 0 -49 -14 -86 -30 -37 -17 -69 -28
-72 -25 -8 7 33 87 110 214 l56 94 84 1 c74 1 90 5 152 36 66 34 136 97 136
123 0 18 -38 57 -55 57 -19 0 -139 -28 -170 -40 -24 -9 -25 -8 -14 11 25 47
244 313 302 368 l26 23 48 -18 c73 -29 221 -26 290 5 77 34 84 84 17 116 -30
14 -45 15 -102 6 -37 -6 -81 -15 -98 -20 -18 -5 -37 -5 -45 0 -11 7 -8 14 16
36 52 48 258 219 303 251 l43 30 46 -20 c65 -29 190 -35 272 -13 89 23 113 40
109 79 -4 38 -49 64 -130 73 -84 9 -88 16 -32 52 63 39 274 143 339 165 l50
18 62 -42 c61 -40 211 -110 266 -124 53 -13 97 68 67 124 -14 26 -84 66 -154
88 l-58 19 28 11 c47 18 172 50 264 67 47 8 95 18 107 20 12 3 28 -1 35 -8 39
-39 135 -110 195 -146 82 -48 133 -60 156 -36 38 37 10 90 -85 166 -27 21 -49
42 -49 46 0 14 72 20 253 22 l178 1 22 -47z"/>
<path d="M3055 5520 c-129 -32 -358 -174 -493 -304 -143 -138 -150 -262 -18
-321 83 -37 232 -42 244 -7 3 9 -17 12 -77 12 -168 0 -247 76 -194 187 28 59
141 164 271 251 182 121 272 163 321 147 50 -16 77 -198 61 -414 -10 -128 -12
-138 -40 -176 -176 -234 -255 -365 -300 -502 -38 -116 -20 -206 43 -218 133
-25 253 203 323 615 11 65 25 111 35 121 27 27 125 52 150 39 35 -19 41 -58
44 -285 4 -290 15 -350 71 -394 51 -40 154 -13 154 40 0 25 -21 24 -54 -2 -82
-64 -116 50 -116 387 0 202 -4 225 -41 265 -27 29 -33 31 -89 27 -36 -2 -60 1
-60 7 0 15 203 221 363 370 75 70 137 131 137 136 0 46 -198 -117 -418 -342
-69 -71 -130 -129 -136 -129 -8 0 -10 41 -8 130 5 222 -20 329 -84 356 -36 15
-44 16 -89 4z m79 -752 c-37 -224 -119 -449 -190 -525 -48 -51 -68 -42 -72 31
-5 89 30 183 127 344 63 105 118 182 131 182 5 0 7 -14 4 -32z"/>
<path d="M4500 5407 c-82 -19 -142 -53 -208 -119 -68 -68 -106 -131 -138 -232
l-23 -71 -48 1 c-31 1 -84 15 -141 38 -85 34 -112 38 -112 17 0 -15 135 -70
215 -88 l79 -19 12 -75 c30 -192 158 -300 326 -275 61 9 159 76 216 147 26 31
51 58 56 58 5 1 6 -23 3 -51 -6 -48 -12 -58 -60 -103 -30 -27 -86 -77 -126
-110 -162 -133 -266 -274 -245 -334 5 -14 25 -34 44 -45 34 -18 38 -18 95 -1
53 15 70 27 140 98 95 97 144 183 179 318 28 104 40 119 163 202 34 23 63 48
63 55 0 21 -35 13 -76 -18 -21 -16 -44 -30 -50 -30 -6 0 -17 -7 -24 -15 -7 -8
-19 -15 -26 -15 -11 0 -13 28 -11 150 2 131 0 151 -15 167 -27 27 -43 2 -63
-96 -20 -101 -48 -160 -109 -228 -130 -144 -258 -156 -355 -33 -47 59 -64 105
-65 179 l-1 55 85 17 c164 31 306 103 397 200 37 40 83 124 83 151 0 34 -31
79 -63 93 -49 20 -136 25 -197 12z m161 -38 c30 -16 40 -52 26 -93 -19 -54
-84 -138 -135 -173 -99 -67 -246 -123 -326 -123 -28 0 -28 1 -22 43 8 55 65
171 110 223 38 45 122 104 171 122 40 14 151 15 176 1z m25 -869 c-32 -94 -78
-167 -147 -238 -69 -71 -121 -99 -155 -83 -46 21 -26 75 69 184 77 89 237 231
249 219 6 -6 1 -35 -16 -82z"/>
<path d="M2405 3471 c-133 -36 -259 -98 -392 -193 -129 -92 -259 -244 -238
-278 12 -20 25 -9 51 41 75 150 361 344 588 401 192 48 306 -12 337 -176 14
-78 -8 -209 -57 -334 -50 -128 -61 -139 -169 -167 -50 -13 -128 -37 -173 -54
-46 -17 -88 -29 -93 -25 -5 3 -9 131 -9 295 0 271 -1 290 -17 287 -17 -3 -18
-27 -21 -303 -2 -260 -4 -301 -19 -317 -9 -10 -20 -18 -26 -18 -5 0 -38 -21
-74 -46 -117 -84 -154 -168 -95 -214 23 -19 36 -21 93 -18 148 11 334 139 546
376 31 35 48 46 88 54 82 16 80 17 85 -32 4 -35 11 -48 32 -59 24 -14 29 -13
65 11 49 32 103 46 103 25 0 -27 40 -52 84 -51 42 1 113 31 135 58 11 13 17
11 46 -19 23 -25 41 -35 63 -35 40 0 107 30 156 69 22 17 44 30 50 28 6 -2 12
-29 14 -59 2 -39 8 -58 18 -62 20 -8 54 10 80 42 19 23 24 25 38 13 11 -9 29
-11 59 -7 33 5 47 3 57 -9 21 -26 69 -19 101 16 28 30 28 30 41 10 20 -33 80
-28 120 8 41 36 31 52 -13 20 -43 -30 -63 -17 -66 42 -1 24 -2 49 -2 56 -1 16
-119 4 -149 -15 -13 -8 -32 -32 -43 -54 -11 -21 -24 -39 -29 -39 -32 -5 -35
-2 -40 51 -4 46 -8 55 -24 55 -15 0 -22 -11 -31 -53 -12 -52 -52 -109 -66 -95
-4 5 -9 28 -11 53 -3 38 -7 46 -25 48 -22 3 -27 12 -24 40 1 7 -9 12 -24 12
-22 0 -25 -4 -25 -35 0 -29 -6 -38 -38 -59 -80 -50 -142 -52 -157 -6 -9 29 9
46 54 54 21 3 44 13 52 22 11 14 10 18 -6 30 -43 32 -111 6 -151 -57 -17 -27
-40 -47 -69 -60 -92 -41 -135 -34 -135 21 0 35 28 60 68 60 22 0 32 5 32 15 0
11 -11 15 -42 15 -36 0 -48 -7 -97 -52 l-56 -53 -3 30 c-7 71 -50 96 -105 61
-29 -19 -147 -32 -147 -17 0 7 11 33 24 59 66 132 98 294 76 390 -17 77 -42
124 -87 161 -72 60 -186 75 -308 42z m1525 -665 c0 -24 -45 -81 -65 -81 -24 0
-23 36 0 72 17 25 65 32 65 9z m-1056 -52 c18 -17 13 -34 -10 -34 -8 0 -14 10
-14 25 0 29 3 30 24 9z m-314 -51 c-97 -111 -196 -198 -275 -243 -114 -65
-140 -74 -200 -75 l-60 0 -3 37 c-3 31 3 44 34 78 39 43 110 97 135 102 9 2
15 -10 19 -37 3 -27 10 -41 23 -43 14 -3 17 4 17 45 0 26 4 53 8 59 12 19 72
45 192 84 124 41 150 39 110 -7z"/>
<path d="M5757 3064 c-4 -4 -7 -18 -7 -31 0 -38 -18 -63 -45 -63 -34 0 -32
-18 3 -22 26 -3 27 -5 30 -76 3 -83 -2 -93 -62 -124 -89 -46 -151 -37 -144 20
3 23 9 28 47 34 25 4 49 12 55 18 18 18 -8 45 -47 48 -28 2 -43 -3 -71 -28
-20 -18 -36 -40 -36 -50 0 -20 -54 -70 -76 -70 -15 0 -17 8 -14 87 1 47 -1 54
-24 64 -20 10 -30 8 -60 -10 -28 -18 -39 -20 -56 -11 -17 9 -24 7 -44 -15 -21
-22 -28 -25 -45 -15 -24 12 -23 13 -41 -57 -10 -42 -44 -78 -63 -66 -5 3 -7
22 -3 42 6 42 -1 57 -29 62 -12 3 -21 14 -23 27 -2 13 -10 22 -22 22 -22 0
-32 -23 -24 -56 5 -19 0 -31 -21 -50 -15 -14 -32 -23 -39 -21 -6 2 -13 34 -16
73 -4 60 -8 69 -25 69 -14 0 -23 -12 -35 -52 -26 -88 -60 -98 -60 -18 0 24 -5
47 -10 50 -15 9 -40 -13 -40 -35 0 -19 -30 -50 -48 -50 -7 0 -12 12 -12 26 0
72 -65 89 -122 30 -38 -39 -74 -59 -88 -51 -6 3 -10 19 -10 34 0 25 -5 29 -56
41 -51 12 -59 12 -91 -5 -72 -39 -99 -114 -48 -137 20 -9 33 -6 80 17 97 47
78 14 -36 -63 -167 -113 -238 -244 -169 -307 26 -23 94 -16 140 15 43 28 105
105 126 157 19 45 44 137 44 162 0 18 49 71 66 71 5 0 17 -14 26 -30 22 -39
45 -47 77 -28 35 20 61 33 94 49 26 12 30 11 52 -17 22 -27 25 -28 55 -17 28
11 36 9 60 -8 26 -20 29 -20 59 -5 17 9 31 20 31 24 0 14 51 62 61 57 5 -4 9
-28 9 -54 0 -74 27 -89 79 -45 17 14 38 25 48 24 35 -4 40 0 57 45 20 51 36
59 36 16 0 -43 26 -47 50 -8 11 17 20 37 20 43 0 14 40 50 41 38 1 -5 0 -34
-1 -64 -1 -45 2 -59 19 -74 20 -19 23 -19 54 -3 17 9 40 22 49 29 14 10 21 9
38 -10 40 -43 113 -38 192 14 l38 24 16 -33 c20 -39 31 -47 67 -47 19 0 42 13
70 39 51 48 45 62 -9 21 -78 -59 -98 -31 -86 118 l7 97 70 3 c39 1 77 5 85 8
30 11 -14 24 -62 18 -77 -10 -96 -1 -100 48 -3 39 -16 57 -31 42z m-1401 -255
c8 -14 -45 -69 -68 -69 -27 0 -22 35 8 59 30 23 49 27 60 10z m228 -80 c-12
-20 -34 -8 -34 18 0 25 1 26 20 8 11 -10 17 -22 14 -26z m-224 -90 c0 -11 -14
-55 -32 -97 -23 -56 -46 -91 -84 -129 -53 -53 -79 -64 -102 -41 -42 42 31 158
163 257 48 36 55 37 55 10z"/>
<path d="M3700 2924 c0 -9 5 -14 12 -12 18 6 21 28 4 28 -9 0 -16 -7 -16 -16z"/>
<path d="M3742 1287 c-82 -31 -155 -119 -172 -205 -6 -31 -15 -67 -20 -79 -11
-26 5 -76 72 -228 l44 -100 176 -3 c133 -2 177 1 185 10 5 7 24 49 42 93 19
44 47 109 62 144 26 58 28 66 14 81 -8 9 -15 25 -15 34 0 10 -7 43 -16 73 -19
65 -76 133 -139 166 -49 25 -182 33 -233 14z m236 -56 c60 -38 103 -100 109
-156 l5 -40 -47 -13 c-36 -10 -55 -10 -86 -1 -30 10 -47 9 -77 0 -28 -10 -48
-10 -78 -2 -27 7 -51 8 -75 1 -24 -7 -48 -7 -81 2 -42 10 -48 15 -48 37 1 66
64 150 142 190 36 18 55 22 115 18 59 -3 80 -9 121 -36z m-278 -250 c39 2 262
2 290 -1 14 -1 46 2 73 6 61 9 61 4 0 -140 -51 -121 -68 -147 -89 -139 -19 7
-18 29 7 129 15 59 19 88 11 96 -15 15 -26 -11 -53 -124 -23 -98 -38 -120 -65
-97 -10 8 -14 39 -14 115 0 86 -3 104 -15 104 -12 0 -15 -19 -15 -109 0 -88
-3 -110 -15 -115 -37 -14 -48 10 -81 182 -6 31 -28 52 -40 39 -4 -3 6 -52 20
-108 21 -79 24 -104 14 -110 -25 -15 -45 12 -96 129 -66 152 -66 156 -4 148
26 -3 58 -6 72 -5z"/>
<path d="M3790 1215 c-11 -13 -8 -15 20 -15 21 0 30 4 28 13 -7 18 -33 20 -48
2z"/>
<path d="M3894 1216 c-9 -24 12 -44 28 -28 10 10 8 16 -5 29 -15 15 -17 15
-23 -1z"/>
<path d="M3710 1166 c0 -15 37 -32 47 -22 9 8 -17 36 -33 36 -8 0 -14 -6 -14
-14z"/>
<path d="M3800 1150 c0 -13 38 -32 51 -25 14 10 -9 35 -32 35 -11 0 -19 -4
-19 -10z"/>
<path d="M3940 1145 c-7 -9 -10 -18 -7 -21 10 -10 47 7 47 22 0 19 -24 18 -40
-1z"/>
<path d="M3882 1088 c2 -12 9 -23 16 -26 18 -6 15 35 -4 42 -11 4 -15 0 -12
-16z"/>
<path d="M4002 1098 c-16 -16 -15 -38 2 -38 13 0 26 20 26 41 0 13 -14 11 -28
-3z"/>
<path d="M3667 1093 c-12 -11 -7 -33 7 -33 12 0 26 20 26 36 0 7 -26 5 -33 -3z"/>
<path d="M3763 1093 c-23 -9 -15 -35 10 -31 12 2 22 9 22 17 0 16 -14 22 -32
14z"/>
</g>
</svg>
